<?xml version="1.0" encoding="iso-8859-1"?>
<!-- Generator: Adobe Illustrator 19.0.0, SVG Export Plug-In . SVG Version: 6.00 Build 0)  -->
<svg version="1.1" id="Capa_1" xmlns="http://www.w3.org/2000/svg" xmlns:xlink="http://www.w3.org/1999/xlink" x="0px" y="0px"
	 viewBox="0 0 511.941 511.941" style="enable-background:new 0 0 511.941 511.941;" xml:space="preserve">
<path style="fill:#BBDEFB;" d="M402.148,149.441C384.338,62.889,299.736,7.162,213.183,24.973
	c-74.105,15.249-127.4,80.32-127.75,155.977c0,3.605,0.149,7.296,0.469,11.2C33.178,197.731-5.04,244.997,0.541,297.721
	c5.173,48.87,46.416,85.943,95.559,85.895h117.333v-44.501c-16.659,5.9-34.947-2.823-40.847-19.482
	c-4.119-11.632-1.183-24.595,7.545-33.318l42.667-42.667c4.003-3.949,8.99-6.755,14.443-8.128l3.925-0.768
	c5.017-0.747,10.14-0.272,14.933,1.387l5.163,2.347c2.459,1.415,4.719,3.151,6.72,5.163l42.667,42.667
	c12.492,12.496,12.492,32.752,0,45.248c-8.772,8.561-21.6,11.486-33.216,7.573v44.48h117.333
	c64.731-0.017,117.191-52.506,117.174-117.237C511.924,204.539,463.865,153.352,402.148,149.441z"/>
<path style="fill:#2196F3;" d="M295.652,301.398l-42.667-42.667c-0.973-0.914-2.109-1.638-3.349-2.133l0,0l0,0
	c-1.728-0.65-3.597-0.834-5.419-0.533c-0.446,0.055-0.888,0.14-1.323,0.256c-1.819,0.416-3.492,1.315-4.843,2.603l-42.667,42.667
	c-4.092,4.237-3.975,10.99,0.262,15.083c4.134,3.992,10.687,3.992,14.82,0l24.299-24.64v187.584c0,5.891,4.776,10.667,10.667,10.667
	s10.667-4.776,10.667-10.667V292.033l24.448,24.448c4.237,4.092,10.99,3.975,15.083-0.262c3.992-4.134,3.992-10.687,0-14.82H295.652
	z"/>
<g>
</g>
<g>
</g>
<g>
</g>
<g>
</g>
<g>
</g>
<g>
</g>
<g>
</g>
<g>
</g>
<g>
</g>
<g>
</g>
<g>
</g>
<g>
</g>
<g>
</g>
<g>
</g>
<g>
</g>
</svg>
